<svg width="24" height="30" viewBox="0 0 24 30" fill="none" xmlns="http://www.w3.org/2000/svg">
<path d="M0 25.5V22.5H3V12C3 9.925 3.625 8.08125 4.875 6.46875C6.125 4.85625 7.75 3.8 9.75 3.3V2.25C9.75 1.625 9.96875 1.09375 10.4062 0.65625C10.8438 0.21875 11.375 0 12 0C12.625 0 13.1562 0.21875 13.5937 0.65625C14.0312 1.09375 14.25 1.625 14.25 2.25V3.3C16.25 3.8 17.875 4.85625 19.125 6.46875C20.375 8.08125 21 9.925 21 12V22.5H24V25.5H0ZM12 30C11.175 30 10.4687 29.7062 9.88125 29.1187C9.29375 28.5312 9 27.825 9 27H15C15 27.825 14.7062 28.5312 14.1187 29.1187C13.5312 29.7062 12.825 30 12 30Z" fill="#3B3838"/>
</svg>
