<svg width="26" height="32" viewBox="0 0 26 32" fill="current" xmlns="http://www.w3.org/2000/svg">
<path d="M0 27.2V24H3.25V12.8C3.25 10.5867 3.92708 8.62 5.28125 6.9C6.63542 5.18 8.39583 4.05333 10.5625 3.52V2.4C10.5625 1.73333 10.7995 1.16667 11.2734 0.7C11.7474 0.233333 12.3229 0 13 0C13.6771 0 14.2526 0.233333 14.7266 0.7C15.2005 1.16667 15.4375 1.73333 15.4375 2.4V3.52C17.6042 4.05333 19.3646 5.18 20.7188 6.9C22.0729 8.62 22.75 10.5867 22.75 12.8V24H26V27.2H0ZM13 32C12.1062 32 11.3411 31.6867 10.7047 31.06C10.0682 30.4333 9.75 29.68 9.75 28.8H16.25C16.25 29.68 15.9318 30.4333 15.2953 31.06C14.6589 31.6867 13.8938 32 13 32ZM6.5 24H19.5V12.8C19.5 11.04 18.8635 9.53333 17.5906 8.28C16.3177 7.02667 14.7875 6.4 13 6.4C11.2125 6.4 9.68229 7.02667 8.40937 8.28C7.13646 9.53333 6.5 11.04 6.5 12.8V24Z" fill="black"/>
</svg>
