<svg width="25" height="35" viewBox="0 0 25 35" fill="none" xmlns="http://www.w3.org/2000/svg">
<path d="M12.8866 34.5417C13.4379 34.5738 13.9108 34.1527 13.9428 33.6014C13.9749 33.05 13.5538 32.5771 13.0025 32.5451L12.8866 34.5417ZM9.08534 18.9681C8.92103 20.0243 8.61327 21.3507 8.31372 22.9391C8.02397 24.4756 7.76026 26.1769 7.73956 27.777C7.71911 29.3576 7.93203 30.9745 8.71509 32.25C9.54246 33.5977 10.9203 34.4276 12.8866 34.5417L13.0025 32.5451C11.6086 32.4642 10.8644 31.9284 10.4195 31.2036C9.9303 30.4067 9.72074 29.2444 9.73939 27.8029C9.75779 26.381 9.99476 24.8173 10.2791 23.3098C10.5536 21.8541 10.8933 20.3575 11.0616 19.2755L9.08534 18.9681Z" fill="black"/>
<path d="M8.73831 11.6391L8.52734 12.6166L8.63163 12.6391H8.73832L8.73831 11.6391ZM3.99343 17.9051L4.38915 16.9867L4.38915 16.9867L3.99343 17.9051ZM4.18139 18.1454L3.19423 18.3052L3.19423 18.3052L4.18139 18.1454ZM12.5902 8.7274C12.4226 9.25362 12.7132 9.81612 13.2394 9.98379C13.7657 10.1515 14.3282 9.86079 14.4958 9.33457L12.5902 8.7274ZM7.71539 3.78876L8.5931 4.26796L8.5931 4.26796L7.71539 3.78876ZM7.45534 3.95364L7.51798 4.95167H7.51798L7.45534 3.95364ZM16.245 13.0423C15.7229 12.862 15.1536 13.139 14.9732 13.661C14.7929 14.183 15.0699 14.7524 15.5919 14.9327L16.245 13.0423ZM21.2999 8.28824L20.7997 9.15411L21.2999 8.28824ZM21.1414 8.02426L20.1421 8.06259V8.06259L21.1414 8.02426ZM12.5442 8.88911C12.4088 9.42452 12.733 9.96837 13.2684 10.1038C13.8038 10.2393 14.3477 9.91505 14.4831 9.37963L12.5442 8.88911ZM16.6503 21.6457L16.6586 20.6457H16.6586L16.6503 21.6457ZM16.1872 13.0175C15.6587 12.8572 15.1003 13.1558 14.9401 13.6843C14.7798 14.2128 15.0783 14.7712 15.6068 14.9314L16.1872 13.0175ZM11.866 16.5206C12.0705 16.0075 11.8203 15.4259 11.3073 15.2214C10.7942 15.0169 10.2126 15.2671 10.0081 15.7801L11.866 16.5206ZM9.96579 20.8186L8.96654 20.8574L9.96579 20.8186ZM16.3798 21.7908L17.2215 22.3308L17.2215 22.3308L16.3798 21.7908ZM8.43793 11.3386L8.75415 10.39L8.74244 10.3861L8.73063 10.3824L8.43793 11.3386ZM8.94929 10.6616C4.69437 9.74326 1.55087 10.6529 0.408641 12.7789C-0.171521 13.8588 -0.119062 15.0957 0.470959 16.1923C1.05176 17.2718 2.13112 18.1915 3.59771 18.8234L4.38915 16.9867C3.22531 16.4852 2.54806 15.8317 2.2322 15.2447C1.92556 14.6748 1.9413 14.152 2.17047 13.7255C2.6469 12.8387 4.50629 11.7487 8.52734 12.6166L8.94929 10.6616ZM3.19423 18.3052C3.61339 20.8947 4.71439 22.6141 6.42059 23.0305C8.07834 23.4351 9.68463 22.4464 10.7447 21.1074L9.17664 19.866C8.33853 20.9246 7.45311 21.2238 6.89474 21.0875C6.38481 20.9631 5.54526 20.313 5.16854 17.9856L3.19423 18.3052ZM3.59771 18.8234C3.38463 18.7316 3.23236 18.5407 3.19423 18.3052L5.16854 17.9856C5.09642 17.5401 4.79759 17.1627 4.38915 16.9867L3.59771 18.8234ZM14.4958 9.33457C15.1873 7.16447 15.3621 5.3182 15.1279 3.84005C14.8939 2.36326 14.2351 1.18933 13.2121 0.533508C12.1714 -0.133618 10.921 -0.155381 9.77381 0.359014C8.64266 0.866232 7.61713 1.88194 6.83769 3.30956L8.5931 4.26796C9.21954 3.12057 9.955 2.46963 10.5921 2.18394C11.2132 1.90543 11.7384 1.96448 12.1327 2.21726C12.5447 2.48134 12.9804 3.06639 13.1525 4.15302C13.3245 5.23828 13.2171 6.75987 12.5902 8.7274L14.4958 9.33457ZM6.83769 3.30956C6.95302 3.09832 7.16042 2.97018 7.3927 2.9556L7.51798 4.95167C7.96328 4.92372 8.37549 4.66653 8.5931 4.26796L6.83769 3.30956ZM15.5919 14.9327C17.7447 15.6764 19.5862 15.8958 21.0696 15.6973C22.5516 15.4991 23.7411 14.8689 24.4214 13.862C25.1135 12.8377 25.1655 11.5882 24.6789 10.4289C24.1992 9.28584 23.2086 8.23607 21.8002 7.42237L20.7997 9.15411C21.9316 9.80809 22.5646 10.5591 22.8348 11.2029C23.0982 11.8306 23.0265 12.3541 22.7642 12.7422C22.4903 13.1477 21.8949 13.5691 20.8044 13.715C19.7153 13.8607 18.1968 13.7166 16.245 13.0423L15.5919 14.9327ZM22.1407 7.98594C22.0666 6.05449 21.621 4.57282 20.7845 3.63118C19.8862 2.62 18.6687 2.37673 17.5031 2.70083C16.3945 3.0091 15.3493 3.81319 14.5042 4.86408C13.6484 5.9282 12.9438 7.30972 12.5442 8.88911L14.4831 9.37963C14.8153 8.06654 15.3949 6.94783 16.0627 6.11743C16.7412 5.2738 17.4587 4.78908 18.039 4.62772C18.5623 4.48218 18.9597 4.58845 19.2893 4.95945C19.6806 5.39998 20.0758 6.33312 20.1421 8.06259L22.1407 7.98594ZM21.8002 7.42237C22.0086 7.54277 22.1317 7.75325 22.1407 7.98594L20.1421 8.06259C20.1592 8.50856 20.4065 8.92693 20.7997 9.15411L21.8002 7.42237ZM16.642 22.6456C18.5748 22.6617 20.0756 22.2857 21.0552 21.494C22.1072 20.6439 22.407 19.4389 22.1376 18.2596C21.8813 17.1378 21.1268 16.0562 20.1165 15.163C19.0934 14.2586 17.7463 13.4903 16.1872 13.0175L15.6068 14.9314C16.903 15.3245 17.9935 15.9556 18.7918 16.6614C19.6029 17.3784 20.0537 18.1178 20.1878 18.705C20.3088 19.2346 20.1841 19.6266 19.7981 19.9385C19.3398 20.3089 18.3893 20.6601 16.6586 20.6457L16.642 22.6456ZM10.0081 15.7801C9.23044 17.7313 8.91138 19.4366 8.96654 20.8574L10.965 20.7798C10.9235 19.7091 11.1621 18.2868 11.866 16.5206L10.0081 15.7801ZM8.96654 20.8574C9.05836 23.2226 10.2458 24.9819 12.1657 25.2792C13.9892 25.5617 15.8876 24.4099 17.2215 22.3308L15.5381 21.2508C14.4331 22.9732 13.2052 23.4164 12.4718 23.3028C11.8349 23.2041 11.0348 22.5765 10.965 20.7798L8.96654 20.8574ZM16.6586 20.6457C16.2161 20.642 15.7854 20.8654 15.5381 21.2508L17.2215 22.3308C17.0894 22.5366 16.871 22.6475 16.642 22.6456L16.6586 20.6457ZM7.3927 2.9556C5.54919 3.07131 4.13554 3.51502 3.24026 4.32137C2.27077 5.19455 2.04951 6.36328 2.37046 7.47826C2.67354 8.53117 3.44299 9.5207 4.42367 10.3317C5.41826 11.1542 6.69915 11.8522 8.14522 12.2948L8.73063 10.3824C7.52297 10.0128 6.4792 9.43632 5.69827 8.79049C4.90344 8.13316 4.44651 7.46036 4.29242 6.92502C4.15618 6.45174 4.24694 6.1063 4.57873 5.80747C4.98473 5.4418 5.86162 5.05563 7.51798 4.95167L7.3927 2.9556ZM8.43793 11.3386C8.1217 12.2873 8.12161 12.2873 8.12152 12.2873C8.1215 12.2873 8.12142 12.2872 8.12137 12.2872C8.12127 12.2872 8.12118 12.2872 8.12111 12.2871C8.12097 12.2871 8.12088 12.2871 8.12084 12.287C8.12075 12.287 8.12087 12.2871 8.12118 12.2872C8.12179 12.2874 8.12317 12.2878 8.12523 12.2885C8.12936 12.2899 8.13618 12.2923 8.14513 12.2954C8.16322 12.3017 8.18898 12.3109 8.21824 12.3219C8.28435 12.3467 8.33896 12.3696 8.36625 12.3833C8.38499 12.3927 8.3553 12.38 8.30731 12.344C8.2848 12.3271 8.221 12.2778 8.15398 12.194C8.09807 12.1241 7.94481 11.9129 7.94491 11.5918C7.94496 11.4199 7.99027 11.2525 8.07409 11.1059C8.1542 10.9658 8.25397 10.8712 8.33388 10.8113C8.48004 10.7017 8.6158 10.6659 8.65545 10.656C8.74495 10.6337 8.79296 10.6391 8.73831 10.6391L8.73832 12.6391C8.83391 12.6391 8.98521 12.6351 9.14045 12.5963C9.21296 12.5782 9.3722 12.5325 9.53363 12.4115C9.72317 12.2694 9.94479 11.9924 9.94491 11.5925C9.94502 11.2573 9.78471 11.0309 9.7159 10.9448C9.63597 10.8449 9.5534 10.7786 9.50742 10.7441C9.41249 10.6729 9.31708 10.6226 9.26072 10.5945C9.13778 10.533 9.00462 10.4808 8.9205 10.4493C8.87465 10.4321 8.83469 10.4178 8.80583 10.4077C8.79131 10.4026 8.77935 10.3985 8.77058 10.3955C8.76618 10.394 8.76257 10.3928 8.75981 10.3919C8.75843 10.3914 8.75726 10.391 8.75632 10.3907C8.75584 10.3905 8.75543 10.3904 8.75507 10.3903C8.75489 10.3902 8.75472 10.3901 8.75457 10.3901C8.75449 10.3901 8.75439 10.39 8.75435 10.39C8.75425 10.39 8.75415 10.39 8.43793 11.3386ZM9.4455 10.9321L9.14511 10.6316L7.73074 12.0457L8.03113 12.3461L9.4455 10.9321Z" fill="black"/>
</svg>
