<svg width="20" height="20" viewBox="0 0 20 20" fill="none" xmlns="http://www.w3.org/2000/svg">
<path d="M10.2392 5.14146L1 14.3805V19L5.61958 19L14.8587 9.76096M10.2392 5.14146L13.5521 1.82851L13.5541 1.82655C14.0102 1.3705 14.2386 1.14208 14.5019 1.05652C14.7339 0.981159 14.9837 0.981159 15.2157 1.05652C15.4788 1.14202 15.707 1.37018 16.1624 1.82558L18.1717 3.83483C18.629 4.29218 18.8578 4.52097 18.9435 4.78466C19.0189 5.01661 19.0188 5.26646 18.9435 5.49841C18.8578 5.76191 18.6294 5.99035 18.1727 6.44704L18.1717 6.44803L14.8587 9.76096M10.2392 5.14146L14.8587 9.76096" stroke="white" stroke-width="2" stroke-linecap="round" stroke-linejoin="round"/>
</svg>
