<svg width="58" height="48" viewBox="0 0 29 24" fill="none" xmlns="http://www.w3.org/2000/svg">
<path d="M3.16863 23.3612C2.39474 23.3612 1.73225 23.0857 1.18114 22.5346C0.630043 21.9835 0.354492 21.321 0.354492 20.5471V3.66228C0.354492 2.88839 0.630043 2.2259 1.18114 1.6748C1.73225 1.1237 2.39474 0.848145 3.16863 0.848145H25.6817C26.4556 0.848145 27.1181 1.1237 27.6692 1.6748C28.2203 2.2259 28.4959 2.88839 28.4959 3.66228V20.5471C28.4959 21.321 28.2203 21.9835 27.6692 22.5346C27.1181 23.0857 26.4556 23.3612 25.6817 23.3612H3.16863ZM3.16863 20.5471H25.6817V3.66228H3.16863V20.5471ZM5.98276 17.733H22.8676L17.5911 10.6976L13.3699 16.3259L10.204 12.1047L5.98276 17.733Z" fill="currentColor"/>
</svg>
