<svg width="28" height="33" viewBox="0 0 28 33" fill="none" xmlns="http://www.w3.org/2000/svg">
<path d="M3.5 18.2632C3.5 19.8596 3.80625 21.3717 4.41875 22.7993C5.03125 24.227 5.90625 25.4781 7.04375 26.5526C7.01458 26.3991 7 26.261 7 26.1382V25.7237C7 24.7412 7.175 23.8202 7.525 22.9605C7.875 22.1009 8.38542 21.318 9.05625 20.6118L11.8435 17.7298C13.0227 16.5106 14.9773 16.5106 16.1565 17.7298L18.9437 20.6118C19.6146 21.318 20.125 22.1009 20.475 22.9605C20.825 23.8202 21 24.7412 21 25.7237V26.1382C21 26.261 20.9854 26.3991 20.9562 26.5526C22.0937 25.4781 22.9688 24.227 23.5813 22.7993C24.1938 21.3717 24.5 19.8596 24.5 18.2632C24.5 16.7281 24.2302 15.2774 23.6906 13.9112C23.151 12.545 22.3708 11.3246 21.35 10.25C20.7667 10.6491 20.1542 10.9485 19.5125 11.148C18.8708 11.3476 18.2146 11.4474 17.5438 11.4474C15.7354 11.4474 14.1677 10.818 12.8406 9.55921C11.5135 8.30044 10.7479 6.75 10.5437 4.90789C9.40625 5.92105 8.4 6.97259 7.525 8.0625C6.65 9.15241 5.91354 10.2577 5.31562 11.3783C4.71771 12.4989 4.26562 13.6425 3.95937 14.8092C3.65312 15.9759 3.5 17.1272 3.5 18.2632ZM14 20.6579L11.5062 23.2368C11.1854 23.5746 10.9375 23.9583 10.7625 24.3882C10.5875 24.818 10.5 25.2632 10.5 25.7237C10.5 26.7061 10.8427 27.5504 11.5281 28.2566C12.2135 28.9627 13.0375 29.3158 14 29.3158C14.9625 29.3158 15.7865 28.9627 16.4719 28.2566C17.1573 27.5504 17.5 26.7061 17.5 25.7237C17.5 25.2325 17.4125 24.7796 17.2375 24.3651C17.0625 23.9507 16.8146 23.5746 16.4937 23.2368L14 20.6579ZM9.71514 0.838284C11.5305 -0.57025 14 0.846151 14 3.14386V4.07895C14 5.12281 14.3427 5.99781 15.0281 6.70395C15.7135 7.41009 16.5521 7.76316 17.5438 7.76316C18.0688 7.76316 18.5573 7.64803 19.0094 7.41776C19.4615 7.1875 19.8625 6.84211 20.2125 6.38158V6.38158C20.6621 5.80309 21.4783 5.64398 22.07 6.07611C23.7299 7.28846 25.0795 8.84861 26.1188 10.7566C27.3729 13.0592 28 15.5614 28 18.2632C28 22.3772 26.6438 25.8618 23.9313 28.7171C21.2188 31.5724 17.9083 33 14 33C10.0917 33 6.78125 31.5724 4.06875 28.7171C1.35625 25.8618 0 22.3772 0 18.2632C0 14.3026 1.26146 10.5417 3.78438 6.98026C5.39964 4.70012 7.37656 2.65279 9.71514 0.838284Z" fill="black"/>
</svg>
