<svg width="25" height="35" viewBox="0 0 25 35" fill="none" xmlns="http://www.w3.org/2000/svg">
<path d="M5.45139 12.25H19.6017C20.5039 12.25 21.202 13.0408 21.0901 13.9361L18.8401 31.9361C18.7462 32.6867 18.1081 33.25 17.3517 33.25H7.98264C7.23492 33.25 6.60138 32.6993 6.49726 31.9589L3.96601 13.9589C3.83908 13.0563 4.53989 12.25 5.45139 12.25Z" fill="white" stroke="black" stroke-width="3"/>
<path d="M6.07693 7.25H19.0587C20.578 7.25 21.8945 8.30258 22.229 9.7846C22.6876 11.817 21.1422 13.75 19.0587 13.75H6.07694C4.07565 13.75 2.54988 11.9586 2.86835 9.98283C3.1222 8.40786 4.48164 7.25 6.07693 7.25Z" fill="white" stroke="black" stroke-width="3"/>
<path d="M8.16935 2.57514L17.6633 3.61495C18.424 3.69826 19 4.34081 19 5.10603V5.75C19 6.57843 18.3284 7.25 17.5 7.25H5.88545C5.12029 7.25 4.5 6.62971 4.5 5.86455C4.5 3.89437 6.21089 2.36064 8.16935 2.57514Z" stroke="black" stroke-width="3"/>
<ellipse cx="12.9476" cy="23.0663" rx="2" ry="3.5" transform="rotate(48.5353 12.9476 23.0663)" fill="black"/>
</svg>
