<svg width="33" height="33" viewBox="0 0 33 33" fill="none" xmlns="http://www.w3.org/2000/svg">
<path d="M23.1 33C20.35 33 18.0125 32.0375 16.0875 30.1125C14.1625 28.1875 13.2 25.85 13.2 23.1C13.2 20.35 14.1625 18.0125 16.0875 16.0875C18.0125 14.1625 20.35 13.2 23.1 13.2C25.85 13.2 28.1875 14.1625 30.1125 16.0875C32.0375 18.0125 33 20.35 33 23.1C33 25.85 32.0375 28.1875 30.1125 30.1125C28.1875 32.0375 25.85 33 23.1 33ZM23.1 29.7C24.915 29.7 26.4688 29.0538 27.7613 27.7613C29.0538 26.4688 29.7 24.915 29.7 23.1C29.7 21.285 29.0538 19.7313 27.7613 18.4388C26.4688 17.1463 24.915 16.5 23.1 16.5C21.285 16.5 19.7313 17.1463 18.4388 18.4388C17.1463 19.7313 16.5 21.285 16.5 23.1C16.5 24.915 17.1463 26.4688 18.4388 27.7613C19.7313 29.0538 21.285 29.7 23.1 29.7ZM3.3 29.7C2.3925 29.7 1.61563 29.3769 0.969375 28.7306C0.323125 28.0844 0 27.3075 0 26.4V13.86C0 13.64 0.020625 13.42 0.061875 13.2C0.103125 12.98 0.165 12.76 0.2475 12.54L3.5475 4.95H3.3C2.8325 4.95 2.44063 4.79188 2.12438 4.47563C1.80813 4.15938 1.65 3.7675 1.65 3.3V1.65C1.65 1.1825 1.80813 0.790625 2.12438 0.474375C2.44063 0.158125 2.8325 0 3.3 0H14.85C15.3175 0 15.7094 0.158125 16.0256 0.474375C16.3419 0.790625 16.5 1.1825 16.5 1.65V3.3C16.5 3.7675 16.3419 4.15938 16.0256 4.47563C15.7094 4.79188 15.3175 4.95 14.85 4.95H14.6025L17.325 11.22C16.8025 11.495 16.3075 11.7838 15.84 12.0863C15.3725 12.3888 14.9325 12.7325 14.52 13.1175L11.055 4.95H7.095L3.3 13.86V26.4H10.3125C10.45 26.9775 10.6356 27.5481 10.8694 28.1119C11.1031 28.6756 11.385 29.205 11.715 29.7H3.3ZM23.1 11.55C21.945 11.55 20.9688 11.1513 20.1713 10.3538C19.3738 9.55625 18.975 8.58 18.975 7.425C18.975 6.27 19.3738 5.29375 20.1713 4.49625C20.9688 3.69875 21.945 3.3 23.1 3.3V11.55C23.1 10.395 23.4988 9.41875 24.2963 8.62125C25.0938 7.82375 26.07 7.425 27.225 7.425C28.38 7.425 29.3563 7.82375 30.1538 8.62125C30.9513 9.41875 31.35 10.395 31.35 11.55H23.1Z" fill="black"/>
</svg>
