<svg width="36" height="35" viewBox="0 0 36 35" fill="none" xmlns="http://www.w3.org/2000/svg">
<path d="M24.4 26.1946V29.2501H27.45V26.1946H24.4Z" fill="currentColor"/>
<path d="M9.44594 28.3525C10.0432 28.9509 10.7613 29.2501 11.6 29.2501H24.4V26.1946H11.6V11.3751L10.075 10.5348C9.8389 10.3979 9.62862 10.2381 9.44417 10.0556C9.25133 9.86468 9.08671 9.64886 8.95031 9.4081C8.68344 8.93704 8.55 8.42141 8.55 7.86123C8.55 7.55845 8.58878 7.27137 8.66633 7C8.804 6.51826 9.06387 6.08601 9.44594 5.70324C9.51377 5.63529 9.57431 5.54862 9.64434 5.44836C10.1909 4.66583 11.3157 3.05555 21 3.05555L20.986 3.05557C28.5 3.05557 31.4568 5.10486 32.0541 5.70324C32.6514 6.30162 32.95 7.02095 32.95 7.86123C32.95 8.39595 32.8102 8.89248 32.5306 9.35081C32.251 9.80914 31.8825 10.1784 31.425 10.4584L29.9 11.3751V26.1946H27.45V29.2501H29.9C30.7388 29.2501 31.4568 28.9509 32.0541 28.3525C32.6514 27.7542 32.95 27.0348 32.95 26.1946V13.1321C33.8904 12.5719 34.6339 11.8271 35.1803 10.8977C35.7268 9.96829 36 8.95613 36 7.86123C36 6.18067 35.4027 4.74202 34.2081 3.54526C33.0135 2.3485 29.5 1.35899e-05 20.986 1.35899e-05L21 0C10.7099 0 8.70263 2.08347 7.50589 3.32563C7.43205 3.40227 7.3613 3.47571 7.29188 3.54526C6.30116 4.53778 5.72126 5.69668 5.55219 7.02197C5.5174 7.29467 5.5 7.57443 5.5 7.86123C5.5 8.63583 5.63675 9.36901 5.91025 10.0608C6.02335 10.3468 6.15983 10.6258 6.31969 10.8977C6.86615 11.8271 7.60958 12.5719 8.55 13.1321V26.1946C8.55 27.0348 8.84865 27.7542 9.44594 28.3525Z" fill="currentColor"/>
<path d="M3.94594 33.6024C4.54323 34.2008 5.26125 34.5 6.1 34.5H24.4C25.2388 34.5 25.9568 34.2008 26.5541 33.6024C27.1514 33.0041 27.45 32.2847 27.45 31.4444V29.2501H24.4V31.4444H6.1V16.625L4.575 15.7847C4.09208 15.5046 3.71719 15.1291 3.45031 14.658C3.18344 14.1869 3.05 13.6713 3.05 13.1111C3.05 12.2708 3.34865 11.5515 3.94594 10.9531C4.49769 10.4004 5.15246 10.1029 5.91025 10.0608C5.63675 9.36901 5.5 8.63583 5.5 7.86123C5.5 7.57443 5.5174 7.29467 5.55219 7.02197C4.10775 7.1397 2.85432 7.73076 1.79188 8.79514C0.597292 9.9919 0 11.4306 0 13.1111C0 14.206 0.273229 15.2182 0.819688 16.1476C1.36615 17.077 2.10958 17.8218 3.05 18.3819V31.4444C3.05 32.2847 3.34865 33.0041 3.94594 33.6024Z" fill="currentColor"/>
</svg>
