<svg width="23" height="34" viewBox="0 0 23 34" fill="none" xmlns="http://www.w3.org/2000/svg">
<path d="M16.5003 4.75002H5.07728C3.9784 4.75002 2.95608 5.12592 2.14341 5.76437C2.52148 6.91735 3.6064 7.75002 4.8858 7.75002H5.07728H16.5003C18.0829 7.75002 19.3793 6.52461 19.4923 4.97089C19.0379 4.82704 18.5559 4.75002 18.059 4.75002H16.5003Z" fill="currentColor"/>
<path d="M16.5003 4.75002H18.059C18.5559 4.75002 19.0379 4.82704 19.4923 4.97089C19.4976 4.89796 19.5003 4.8243 19.5003 4.75002V4.10605C19.5003 2.57561 18.3483 1.29051 16.827 1.12389L7.33301 0.0840734C4.48678 -0.227657 2.00035 2.00132 2.00035 4.86457C2.00035 5.17876 2.05056 5.48123 2.14341 5.76437C2.95608 5.12592 3.9784 4.75002 5.07728 4.75002H5.0039C5.06738 3.72875 5.97396 2.95317 7.00639 3.06624L16.5003 4.10606L16.5003 4.75002Z" fill="currentColor"/>
<path d="M16.5003 7.75002H18.059C18.8771 7.75002 19.586 8.31679 19.7661 9.1148C19.8332 9.41196 19.8207 9.70517 19.7444 9.97466C20.8184 10.4171 21.5694 11.4632 21.6014 12.6647C22.5779 11.5704 23.0487 10.0329 22.6925 8.45444C22.3131 6.77307 21.0688 5.4699 19.4923 4.97089C19.3793 6.52461 18.0829 7.75002 16.5003 7.75002Z" fill="currentColor"/>
<path d="M3.34958 9.22154C3.48627 8.37348 4.21828 7.75002 5.07728 7.75002H4.8858C3.6064 7.75002 2.52148 6.91735 2.14341 5.76437C1.23178 6.48057 0.583965 7.52716 0.387806 8.74415C0.155541 10.1851 0.594478 11.559 1.45604 12.574C1.52382 11.3849 2.29666 10.3588 3.38394 9.94503C3.32387 9.71689 3.30921 9.47197 3.34958 9.22154Z" fill="currentColor"/>
<path d="M4.45174 12.75H18.602L18.4161 14.237C19.6947 14.143 20.8129 13.5483 21.6014 12.6647C21.5694 11.4632 20.8184 10.4171 19.7444 9.97466C19.5398 10.6977 18.8763 11.25 18.059 11.25H5.07728C4.25332 11.25 3.57906 10.6861 3.38394 9.94503C2.29666 10.3588 1.52382 11.3849 1.45604 12.574C2.23793 13.495 3.36791 14.1205 4.66016 14.2321L4.45174 12.75Z" fill="currentColor"/>
<path d="M19.3288 31.1221L21.5788 13.1221C21.5981 12.9678 21.6054 12.815 21.6014 12.6647C20.8129 13.5483 19.6947 14.143 18.4161 14.237L16.352 30.75L6.98299 30.75L4.66016 14.2321C3.36791 14.1205 2.23793 13.495 1.45604 12.574C1.44496 12.7682 1.45271 12.9668 1.48097 13.1678L4.01222 31.1678C4.22047 32.6487 5.48755 33.75 6.98299 33.75H16.352C17.865 33.75 19.1412 32.6234 19.3288 31.1221Z" fill="currentColor"/>
<path d="M13.2718 23.565C11.8233 24.845 10.0561 25.2116 9.32472 24.3839C8.59332 23.5561 9.17466 21.8475 10.6232 20.5676C12.0717 19.2876 13.8389 18.921 14.5703 19.7487C15.3017 20.5765 14.7203 22.2851 13.2718 23.565Z" fill="currentColor"/>
<path fill-rule="evenodd" clip-rule="evenodd" d="M4.45174 12.75L4.66016 14.2321C4.79744 14.244 4.93656 14.25 5.07728 14.25H18.059C18.1793 14.25 18.2984 14.2456 18.4161 14.237L18.602 12.75H4.45174Z" fill="currentColor"/>
</svg>
