<svg width="36" height="33" viewBox="0 0 36 33" fill="none" xmlns="http://www.w3.org/2000/svg">
<path d="M6.86364 32.5L0.5 14.625L8.45455 9.75V0H14.8182V9.75L22.7727 14.625L16.4091 32.5H6.86364ZM25.9545 32.5C25.5038 32.5 25.1259 32.3443 24.821 32.0328C24.5161 31.7214 24.3636 31.3354 24.3636 30.875C24.3636 30.4146 24.5161 30.0286 24.821 29.7172C25.1259 29.4057 25.5038 29.25 25.9545 29.25H30.7273V26H25.9545C25.5038 26 25.1259 25.8443 24.821 25.5328C24.5161 25.2214 24.3636 24.8354 24.3636 24.375C24.3636 23.9146 24.5161 23.5286 24.821 23.2172C25.1259 22.9057 25.5038 22.75 25.9545 22.75H30.7273V19.5H25.9545C25.5038 19.5 25.1259 19.3443 24.821 19.0328C24.5161 18.7214 24.3636 18.3354 24.3636 17.875C24.3636 17.4146 24.5161 17.0286 24.821 16.7172C25.1259 16.4057 25.5038 16.25 25.9545 16.25H30.7273V13H25.9545C25.5038 13 25.1259 12.8443 24.821 12.5328C24.5161 12.2214 24.3636 11.8354 24.3636 11.375C24.3636 10.9146 24.5161 10.5286 24.821 10.2172C25.1259 9.90573 25.5038 9.75 25.9545 9.75H30.7273V6.5H25.9545C25.5038 6.5 25.1259 6.34427 24.821 6.03281C24.5161 5.72135 24.3636 5.33542 24.3636 4.875C24.3636 4.41458 24.5161 4.02865 24.821 3.71719C25.1259 3.40573 25.5038 3.25 25.9545 3.25H32.3182C33.1932 3.25 33.9422 3.56823 34.5653 4.20469C35.1884 4.84115 35.5 5.60625 35.5 6.5V29.25C35.5 30.1437 35.1884 30.9089 34.5653 31.5453C33.9422 32.1818 33.1932 32.5 32.3182 32.5H25.9545ZM9.09091 29.25H14.1818L18.875 16.0062L13.9432 13H9.32955L4.39773 16.0062L9.09091 29.25Z" fill="black"/>
</svg>
