<svg width="32" height="32" viewBox="0 0 32 32" fill="none" xmlns="http://www.w3.org/2000/svg">
<path d="M17.7087 31.0294L15.5147 28.8354L21.078 23.272L7.75735 9.95135L2.194 15.5147L0 13.3207L2.194 11.0483L0 8.85435L3.291 5.56335L1.097 3.291L3.291 1.097L5.56335 3.291L8.85435 0L11.0483 2.194L13.3207 0L15.5147 2.194L9.95135 7.75735L23.272 21.078L28.8354 15.5147L31.0294 17.7087L28.8354 19.981L31.0294 22.175L27.7384 25.466L29.9324 27.7384L27.7384 29.9324L25.466 27.7384L22.175 31.0294L19.981 28.8354L17.7087 31.0294Z" fill="currentColor"/>
</svg>
