<svg width="35" height="33" viewBox="0 0 35 33" fill="none" xmlns="http://www.w3.org/2000/svg">
<path d="M21.9163 32.1702C21.1167 32.1702 20.2713 31.8182 19.8504 31.4662C19.4296 31.1142 19.0088 30.7094 19.0088 29.3542V18.5528C19.0088 17.485 19.1905 16.5302 19.5539 15.6883C19.9174 14.8464 20.3899 14.2407 20.9714 13.871L22.3524 13.0086C22.6917 12.8033 22.9461 12.5055 23.1157 12.1154C23.2853 11.7252 23.3701 11.2427 23.3701 10.6677V2.46408C23.3701 1.76592 23.5094 1.18071 23.788 0.708423C24.0667 0.236141 24.4119 0 24.8238 0H29.1851C29.597 0 29.9423 0.236141 30.2209 0.708423C30.4996 1.18071 30.6389 1.76592 30.6389 2.46408V10.6677C30.6389 11.2427 30.7237 11.7252 30.8933 12.1154C31.0629 12.5055 31.3173 12.8033 31.6565 13.0086L33.0376 13.871C33.6191 14.2407 34.0916 14.8464 34.455 15.6883C34.8184 16.5302 35.0002 17.485 35.0002 18.5528L35.0002 29.3542C35.0002 30.7094 34.5793 31.1142 34.1585 31.4662C33.7377 31.8182 32.8922 32.1702 32.0926 32.1702H21.9163ZM26.2776 6.88362H27.7314V4.5H26.2776V6.88362ZM21.9163 20.9268H32.0926V18.5528L32.0544 18.5C32.0544 16.0359 28.8 14.8039 28.267 13.5718C27.7339 12.3398 27.7314 12.3515 27.7314 10.7909V10.0517H26.2776V10.7909C26.2776 12.3515 26.275 12.3398 25.742 13.5718C25.209 14.8039 21.9163 15.6883 21.9163 18.5528V20.9268ZM21.9163 29.3542H32.0926V27.7145H21.9163V29.3542ZM21.9163 25.2504H32.0926V23.3908H21.9163V25.2504Z" fill="black"/>
<path d="M4.288 32.1703C3.53196 32.1703 2.91906 31.5575 2.91906 30.8014V30.8014C2.91906 30.0454 3.53195 29.4325 4.288 29.4325H7.29765V23.8199C5.20566 23.5004 3.46639 22.5878 2.07983 21.082C0.693277 19.5762 0 17.7965 0 15.7431V10.5295C0 8.87269 1.34315 7.52954 3 7.52954H14.5144C16.1712 7.52954 17.5144 8.87269 17.5144 10.5295V15.7431C17.5144 17.7965 16.8211 19.5762 15.4345 21.082C14.048 22.5878 12.3087 23.5004 10.2167 23.8199V29.4325H13.2264C13.9824 29.4325 14.5953 30.0454 14.5953 30.8014V30.8014C14.5953 31.5575 13.9824 32.1703 13.2264 32.1703H4.288ZM8.75718 21.2189C10.1194 21.2189 11.3114 20.831 12.333 20.0553C13.3547 19.2796 14.0358 18.2985 14.3764 17.1121H3.13799C3.47855 18.2985 4.15966 19.2796 5.18133 20.0553C6.20301 20.831 7.39496 21.2189 8.75718 21.2189ZM2.91906 14.3742H14.5953V10.2674H2.91906V14.3742Z" fill="black"/>
</svg>
