<svg width="36" height="35" viewBox="0 0 36 35" fill="none" xmlns="http://www.w3.org/2000/svg">
<path d="M6.1 34.5C5.26125 34.5 4.54323 34.2008 3.94594 33.6024C3.34865 33.0041 3.05 32.2847 3.05 31.4444V18.3819C2.10958 17.8218 1.36615 17.077 0.819688 16.1476C0.273229 15.2182 0 14.206 0 13.1111C0 11.4306 0.597292 9.9919 1.79188 8.79514C2.98646 7.59838 4.4225 7 6.1 7H24.4C26.0775 7 27.5135 7.59838 28.7081 8.79514C29.9027 9.9919 30.5 11.4306 30.5 13.1111C30.5 14.206 30.2268 15.2182 29.6803 16.1476C29.1339 17.077 28.3904 17.8218 27.45 18.3819V31.4444C27.45 32.2847 27.1514 33.0041 26.5541 33.6024C25.9568 34.2008 25.2388 34.5 24.4 34.5H6.1ZM6.1 31.4444H24.4V16.625L25.925 15.7083C26.3825 15.4282 26.751 15.059 27.0306 14.6007C27.3102 14.1424 27.45 13.6458 27.45 13.1111C27.45 12.2708 27.1514 11.5515 26.5541 10.9531C25.9568 10.3547 25.2388 10.0556 24.4 10.0556H6.1C5.26125 10.0556 4.54323 10.3547 3.94594 10.9531C3.34865 11.5515 3.05 12.2708 3.05 13.1111C3.05 13.6713 3.18344 14.1869 3.45031 14.658C3.71719 15.1291 4.09208 15.5046 4.575 15.7847L6.1 16.625V31.4444Z" fill="black"/>
<path d="M11.6 29.2501C10.7613 29.2501 10.0432 28.9509 9.44594 28.3525C8.84865 27.7542 8.55 27.0348 8.55 26.1946V13.1321C7.60958 12.5719 6.86615 11.8271 6.31969 10.8977C5.77323 9.96828 5.5 8.95613 5.5 7.86122C5.5 6.18066 6.09729 4.74201 7.29188 3.54525C8.48646 2.34849 10.075 -1.35899e-05 21 -1.35899e-05L20.986 0C29.5 0 33.0135 2.34849 34.2081 3.54525C35.4027 4.74201 36 6.18066 36 7.86122C36 8.95613 35.7268 9.96828 35.1803 10.8977C34.6339 11.8271 33.8904 12.5719 32.95 13.1321V26.1946C32.95 27.0348 32.6514 27.7542 32.0541 28.3525C31.4568 28.9509 30.7388 29.2501 29.9 29.2501H11.6ZM11.6 26.1946H29.9V11.3751L31.425 10.4584C31.8825 10.1783 32.251 9.80913 32.5306 9.3508C32.8102 8.89247 32.95 8.39594 32.95 7.86122C32.95 7.02094 32.6514 6.30161 32.0541 5.70323C31.4568 5.10485 28.5 3.05556 20.986 3.05556L21 3.05554C10.075 3.05554 10.0432 5.10485 9.44594 5.70323C8.84865 6.30161 8.55 7.02094 8.55 7.86122C8.55 8.4214 8.68344 8.93703 8.95031 9.40809C9.21719 9.87916 9.59208 10.2547 10.075 10.5348L11.6 11.3751V26.1946Z" fill="black"/>
<path d="M11.6 26.1946H29.9V11.3751L31.425 10.4584C31.8825 10.1783 32.251 9.80913 32.5306 9.3508C32.8102 8.89247 32.95 8.39594 32.95 7.86122C32.95 7.02094 32.6514 6.30161 32.0541 5.70323C31.4568 5.10485 28.5 3.05556 20.986 3.05556L21 3.05554C10.075 3.05554 10.0432 5.10485 9.44594 5.70323C8.84865 6.30161 8.55 7.02094 8.55 7.86122C8.55 8.4214 8.68344 8.93703 8.95031 9.40809C9.21719 9.87916 9.59208 10.2547 10.075 10.5348L11.6 11.3751V26.1946Z" fill="white"/>
</svg>
