<svg width="30" height="31" viewBox="0 0 30 31" fill="none" xmlns="http://www.w3.org/2000/svg">
<path d="M3.4 31C2.6025 31 1.91979 30.7207 1.35187 30.1621C0.783958 29.6034 0.5 28.9319 0.5 28.1474V26.8685C0.5 25.2117 1.84315 23.8685 3.5 23.8685H26.5C28.1569 23.8685 29.5 25.2117 29.5 26.8685V28.1474C29.5 28.9319 29.216 29.6034 28.6481 30.1621C28.0802 30.7207 27.3975 31 26.6 31H3.4ZM3.4 26.7211V28.1474H26.6V26.7211H3.4ZM15 14.9761C14.13 14.9761 13.4412 15.2138 12.9337 15.6892C12.4262 16.1646 11.4958 16.4023 10.1425 16.4023C8.78917 16.4023 7.87083 16.1646 7.3875 15.6892C6.90417 15.2138 6.2275 14.9761 5.3575 14.9761C4.4875 14.9761 3.79875 15.2138 3.29125 15.6892C2.98657 15.9746 2.52947 16.1744 1.91994 16.2884C1.14566 16.4333 0.5 15.7638 0.5 14.9761V14.9761C0.5 14.1883 1.17164 13.6057 1.89067 13.284C2.14337 13.1709 2.36856 13.0218 2.56625 12.8366C3.07375 12.3612 4.00417 12.1235 5.3575 12.1235C6.71083 12.1235 7.62917 12.3612 8.1125 12.8366C8.59583 13.3121 9.2725 13.5498 10.1425 13.5498C11.0125 13.5498 11.7012 13.3121 12.2087 12.8366C12.7162 12.3612 13.6467 12.1235 15 12.1235C16.3533 12.1235 17.2837 12.3612 17.7912 12.8366C18.2987 13.3121 18.9875 13.5498 19.8575 13.5498C20.7275 13.5498 21.4042 13.3121 21.8875 12.8366C22.3708 12.3612 23.2892 12.1235 24.6425 12.1235C25.9958 12.1235 26.9504 12.3612 27.5062 12.8366C27.6979 13.0005 27.9024 13.1362 28.1199 13.2436C28.8262 13.5924 29.5 14.1883 29.5 14.9761V14.9761C29.5 15.7638 28.8539 16.4357 28.0804 16.2863C27.4882 16.1719 27.0552 15.9728 26.7812 15.6892C26.3221 15.2138 25.6575 14.9761 24.7875 14.9761C23.9175 14.9761 23.2167 15.2138 22.685 15.6892C22.1533 16.1646 21.2108 16.4023 19.8575 16.4023C18.5042 16.4023 17.5737 16.1646 17.0662 15.6892C16.5587 15.2138 15.87 14.9761 15 14.9761ZM1.92629 9.98404C1.13857 9.98404 0.5 9.34547 0.5 8.55775V8.55775C0.5 5.82402 1.81104 3.7143 4.43313 2.22858C7.05521 0.74286 10.5775 0 15 0C19.4225 0 22.9448 0.74286 25.5669 2.22858C28.189 3.7143 29.5 5.82402 29.5 8.55775V8.55775C29.5 9.34547 28.8614 9.98404 28.0737 9.98404H1.92629ZM15 2.85258C12.0033 2.85258 9.49604 3.22104 7.47812 3.95796C5.46021 4.69487 4.17333 5.75271 3.6175 7.13146H26.3825C25.8267 5.75271 24.5398 4.69487 22.5219 3.95796C20.504 3.22104 17.9967 2.85258 15 2.85258Z" fill="currentColor"/>
<path d="M1.80986 18.862C1.08644 18.862 0.5 19.4484 0.5 20.1718V20.1718C0.5 20.8952 1.08644 21.4817 1.80986 21.4817H28.1901C28.9136 21.4817 29.5 20.8952 29.5 20.1718V20.1718C29.5 19.4484 28.9136 18.862 28.1901 18.862H1.80986Z" fill="currentColor"/>
</svg>
