<svg width="37" height="34" viewBox="0 0 37 34" fill="none" xmlns="http://www.w3.org/2000/svg">
<path d="M11.0105 28.0484H16.4352V26.2402H12.8187V24.4319H16.4352V19.0072H11.0105V20.8154H14.627V22.6237H11.0105V28.0484ZM23.6682 28.0484H25.4764V19.0072H23.6682V22.6237H21.8599V19.0072H20.0517V24.4319H23.6682V28.0484ZM34.5176 15.4811V29.8566C34.5176 30.8512 34.1635 31.7025 33.4553 32.4108C32.747 33.119 31.8957 33.4731 30.9011 33.4731H5.58577C4.59124 33.4731 3.73986 33.119 3.03163 32.4108C2.3234 31.7025 1.96929 30.8512 1.96929 29.8566V15.4811C1.27613 14.8482 0.741192 14.0345 0.364475 13.04C-0.0122412 12.0455 -0.0197755 10.9605 0.341872 9.78518L2.24052 3.63716C2.48162 2.85359 2.91108 2.20564 3.52889 1.69331C4.14671 1.18097 4.86247 0.924805 5.67618 0.924805H30.8107C31.6244 0.924805 32.3326 1.17344 32.9354 1.6707C33.5381 2.16797 33.9751 2.82346 34.2464 3.63716L36.145 9.78518C36.5067 10.9605 36.4991 12.0304 36.1224 12.9948C35.7457 13.9592 35.2108 14.788 34.5176 15.4811ZM22.2216 13.5825C23.0353 13.5825 23.6531 13.3037 24.075 12.7462C24.4969 12.1886 24.6627 11.5633 24.5723 10.8701L23.5778 4.54128H20.0517V11.2318C20.0517 11.8647 20.2626 12.4147 20.6846 12.8818C21.1065 13.3489 21.6188 13.5825 22.2216 13.5825ZM14.0845 13.5825C14.7777 13.5825 15.3427 13.3489 15.7797 12.8818C16.2167 12.4147 16.4352 11.8647 16.4352 11.2318V4.54128H12.9091L11.9146 10.8701C11.7941 11.5934 11.9523 12.2263 12.3893 12.7688C12.8263 13.3112 13.3913 13.5825 14.0845 13.5825ZM6.03783 13.5825C6.5803 13.5825 7.05496 13.3866 7.46182 12.9948C7.86867 12.603 8.1173 12.1058 8.20771 11.503L9.20225 4.54128H5.67618L3.86794 10.5989C3.68712 11.2016 3.78506 11.8496 4.16178 12.5427C4.53849 13.2359 5.16384 13.5825 6.03783 13.5825ZM30.4491 13.5825C31.323 13.5825 31.9559 13.2359 32.3477 12.5427C32.7395 11.8496 32.8299 11.2016 32.6189 10.5989L30.7203 4.54128H27.2846L28.2792 11.503C28.3696 12.1058 28.6182 12.603 29.0251 12.9948C29.4319 13.3866 29.9066 13.5825 30.4491 13.5825ZM5.58577 29.8566H30.9011V17.1085C30.7504 17.1688 30.6525 17.199 30.6073 17.199H30.4491C29.6354 17.199 28.9196 17.0633 28.3018 16.7921C27.684 16.5209 27.0737 16.0839 26.4709 15.4811C25.9285 16.0236 25.3106 16.4455 24.6175 16.7469C23.9243 17.0483 23.186 17.199 22.4024 17.199C21.5887 17.199 20.8277 17.0483 20.1195 16.7469C19.4113 16.4455 18.7859 16.0236 18.2434 15.4811C17.7311 16.0236 17.1359 16.4455 16.4578 16.7469C15.7797 17.0483 15.0489 17.199 14.2653 17.199C13.3913 17.199 12.6002 17.0483 11.892 16.7469C11.1838 16.4455 10.5584 16.0236 10.016 15.4811C9.38307 16.114 8.75772 16.5585 8.13991 16.8147C7.52209 17.0709 6.8214 17.199 6.03783 17.199H5.8344C5.75906 17.199 5.67618 17.1688 5.58577 17.1085V29.8566Z" fill="black"/>
</svg>
