<svg width="36" height="36" viewBox="0 0 36 36" fill="none" xmlns="http://www.w3.org/2000/svg">
<path d="M18 27.9C20.04 27.9 21.8925 27.3225 23.5575 26.1675C25.2225 25.0125 26.43 23.49 27.18 21.6H8.82C9.57 23.49 10.7775 25.0125 12.4425 26.1675C14.1075 27.3225 15.96 27.9 18 27.9ZM10.44 16.2L12.42 14.31L14.31 16.2L16.2 14.31L12.42 10.44L8.55 14.31L10.44 16.2ZM21.69 16.2L23.58 14.31L25.56 16.2L27.45 14.31L23.58 10.44L19.8 14.31L21.69 16.2ZM18 36C15.51 36 13.17 35.5275 10.98 34.5825C8.79 33.6375 6.885 32.355 5.265 30.735C3.645 29.115 2.3625 27.21 1.4175 25.02C0.4725 22.83 0 20.49 0 18C0 15.51 0.4725 13.17 1.4175 10.98C2.3625 8.79 3.645 6.885 5.265 5.265C6.885 3.645 8.79 2.3625 10.98 1.4175C13.17 0.4725 15.51 0 18 0C20.49 0 22.83 0.4725 25.02 1.4175C27.21 2.3625 29.115 3.645 30.735 5.265C32.355 6.885 33.6375 8.79 34.5825 10.98C35.5275 13.17 36 15.51 36 18C36 20.49 35.5275 22.83 34.5825 25.02C33.6375 27.21 32.355 29.115 30.735 30.735C29.115 32.355 27.21 33.6375 25.02 34.5825C22.83 35.5275 20.49 36 18 36ZM18 32.4C22.02 32.4 25.425 31.005 28.215 28.215C31.005 25.425 32.4 22.02 32.4 18C32.4 13.98 31.005 10.575 28.215 7.785C25.425 4.995 22.02 3.6 18 3.6C13.98 3.6 10.575 4.995 7.785 7.785C4.995 10.575 3.6 13.98 3.6 18C3.6 22.02 4.995 25.425 7.785 28.215C10.575 31.005 13.98 32.4 18 32.4Z" fill="currentColor"/>
</svg>
