<svg width="36" height="36" viewBox="0 0 36 36" fill="none" xmlns="http://www.w3.org/2000/svg">
<path d="M18 20.7C15.96 20.7 14.1075 21.2775 12.4425 22.4325C10.7775 23.5875 9.57 25.11 8.82 27H27.18C26.43 25.11 25.2225 23.5875 23.5575 22.4325C21.8925 21.2775 20.04 20.7 18 20.7ZM10.44 18L12.42 16.11L14.31 18L16.2 16.11L14.31 14.22L16.2 12.24L14.31 10.35L12.42 12.24L10.44 10.35L8.55 12.24L10.44 14.22L8.55 16.11L10.44 18ZM21.69 18L23.58 16.11L25.56 18L27.45 16.11L25.56 14.22L27.45 12.24L25.56 10.35L23.58 12.24L21.69 10.35L19.8 12.24L21.69 14.22L19.8 16.11L21.69 18ZM18 36C15.51 36 13.17 35.5275 10.98 34.5825C8.79 33.6375 6.885 32.355 5.265 30.735C3.645 29.115 2.3625 27.21 1.4175 25.02C0.4725 22.83 0 20.49 0 18C0 15.51 0.4725 13.17 1.4175 10.98C2.3625 8.79 3.645 6.885 5.265 5.265C6.885 3.645 8.79 2.3625 10.98 1.4175C13.17 0.4725 15.51 0 18 0C20.49 0 22.83 0.4725 25.02 1.4175C27.21 2.3625 29.115 3.645 30.735 5.265C32.355 6.885 33.6375 8.79 34.5825 10.98C35.5275 13.17 36 15.51 36 18C36 20.49 35.5275 22.83 34.5825 25.02C33.6375 27.21 32.355 29.115 30.735 30.735C29.115 32.355 27.21 33.6375 25.02 34.5825C22.83 35.5275 20.49 36 18 36ZM18 32.4C22.02 32.4 25.425 31.005 28.215 28.215C31.005 25.425 32.4 22.02 32.4 18C32.4 13.98 31.005 10.575 28.215 7.785C25.425 4.995 22.02 3.6 18 3.6C13.98 3.6 10.575 4.995 7.785 7.785C4.995 10.575 3.6 13.98 3.6 18C3.6 22.02 4.995 25.425 7.785 28.215C10.575 31.005 13.98 32.4 18 32.4Z" fill="black"/>
</svg>
