<svg width="36" height="36" viewBox="0 0 36 36" fill="none" xmlns="http://www.w3.org/2000/svg">
<path d="M24.3 16.2C25.05 16.2 25.6875 15.9375 26.2125 15.4125C26.7375 14.8875 27 14.25 27 13.5C27 12.75 26.7375 12.1125 26.2125 11.5875C25.6875 11.0625 25.05 10.8 24.3 10.8C23.55 10.8 22.9125 11.0625 22.3875 11.5875C21.8625 12.1125 21.6 12.75 21.6 13.5C21.6 14.25 21.8625 14.8875 22.3875 15.4125C22.9125 15.9375 23.55 16.2 24.3 16.2ZM11.7 16.2C12.45 16.2 13.0875 15.9375 13.6125 15.4125C14.1375 14.8875 14.4 14.25 14.4 13.5C14.4 12.75 14.1375 12.1125 13.6125 11.5875C13.0875 11.0625 12.45 10.8 11.7 10.8C10.95 10.8 10.3125 11.0625 9.7875 11.5875C9.2625 12.1125 9 12.75 9 13.5C9 14.25 9.2625 14.8875 9.7875 15.4125C10.3125 15.9375 10.95 16.2 11.7 16.2ZM12.6 24.3H23.4V21.6H12.6V24.3ZM18 36C15.51 36 13.17 35.5275 10.98 34.5825C8.79 33.6375 6.885 32.355 5.265 30.735C3.645 29.115 2.3625 27.21 1.4175 25.02C0.4725 22.83 0 20.49 0 18C0 15.51 0.4725 13.17 1.4175 10.98C2.3625 8.79 3.645 6.885 5.265 5.265C6.885 3.645 8.79 2.3625 10.98 1.4175C13.17 0.4725 15.51 0 18 0C20.49 0 22.83 0.4725 25.02 1.4175C27.21 2.3625 29.115 3.645 30.735 5.265C32.355 6.885 33.6375 8.79 34.5825 10.98C35.5275 13.17 36 15.51 36 18C36 20.49 35.5275 22.83 34.5825 25.02C33.6375 27.21 32.355 29.115 30.735 30.735C29.115 32.355 27.21 33.6375 25.02 34.5825C22.83 35.5275 20.49 36 18 36ZM18 32.4C22.02 32.4 25.425 31.005 28.215 28.215C31.005 25.425 32.4 22.02 32.4 18C32.4 13.98 31.005 10.575 28.215 7.785C25.425 4.995 22.02 3.6 18 3.6C13.98 3.6 10.575 4.995 7.785 7.785C4.995 10.575 3.6 13.98 3.6 18C3.6 22.02 4.995 25.425 7.785 28.215C10.575 31.005 13.98 32.4 18 32.4Z" fill="black"/>
</svg>
