<svg width="20" height="20" viewBox="0 0 24 24" fill="none" xmlns="http://www.w3.org/2000/svg">
<path d="M12 24C8.93333 24 6.26111 22.9833 3.98333 20.95C1.70556 18.9167 0.4 16.3778 0.0666667 13.3333H2.8C3.11111 15.6444 4.13889 17.5556 5.88333 19.0667C7.62778 20.5778 9.66667 21.3333 12 21.3333C14.6 21.3333 16.8056 20.4278 18.6167 18.6167C20.4278 16.8056 21.3333 14.6 21.3333 12C21.3333 9.4 20.4278 7.19444 18.6167 5.38333C16.8056 3.57222 14.6 2.66667 12 2.66667C10.4667 2.66667 9.03333 3.02222 7.7 3.73333C6.36667 4.44444 5.24444 5.42222 4.33333 6.66667H8V9.33333H0V1.33333H2.66667V4.46667C3.8 3.04444 5.18333 1.94444 6.81667 1.16667C8.45 0.388889 10.1778 0 12 0C13.6667 0 15.2278 0.316667 16.6833 0.95C18.1389 1.58333 19.4056 2.43889 20.4833 3.51667C21.5611 4.59444 22.4167 5.86111 23.05 7.31667C23.6833 8.77222 24 10.3333 24 12C24 13.6667 23.6833 15.2278 23.05 16.6833C22.4167 18.1389 21.5611 19.4056 20.4833 20.4833C19.4056 21.5611 18.1389 22.4167 16.6833 23.05C15.2278 23.6833 13.6667 24 12 24Z" fill="currentColor"/>
</svg>
