<svg width="36" height="36" viewBox="0 0 36 36" fill="none" xmlns="http://www.w3.org/2000/svg">
<path d="M36 8V32C36 33.1 35.6083 34.0417 34.825 34.825C34.0417 35.6083 33.1 36 32 36H4C2.9 36 1.95833 35.6083 1.175 34.825C0.391667 34.0417 0 33.1 0 32V4C0 2.9 0.391667 1.95833 1.175 1.175C1.95833 0.391667 2.9 0 4 0H28L36 8ZM32 9.7L26.3 4H4V32H32V9.7ZM18 30C19.6667 30 21.0833 29.4167 22.25 28.25C23.4167 27.0833 24 25.6667 24 24C24 22.3333 23.4167 20.9167 22.25 19.75C21.0833 18.5833 19.6667 18 18 18C16.3333 18 14.9167 18.5833 13.75 19.75C12.5833 20.9167 12 22.3333 12 24C12 25.6667 12.5833 27.0833 13.75 28.25C14.9167 29.4167 16.3333 30 18 30ZM6 14H24V6H6V14ZM4 9.7V32V4V9.7Z" fill="black"/>
</svg>
