<svg width="20" height="21" viewBox="0 0 20 21" fill="none" xmlns="http://www.w3.org/2000/svg">
<path d="M2 2V8.025V8V18V2ZM4 12H7.5C7.65 11.6167 7.83333 11.2583 8.05 10.925C8.26667 10.5917 8.51667 10.2833 8.8 10H4V12ZM4 16H7.175C7.09167 15.6667 7.0375 15.3333 7.0125 15C6.9875 14.6667 6.99167 14.3333 7.025 14H4V16ZM2 20C1.45 20 0.979167 19.8042 0.5875 19.4125C0.195833 19.0208 0 18.55 0 18V2C0 1.45 0.195833 0.979167 0.5875 0.5875C0.979167 0.195833 1.45 0 2 0H10L16 6V8.5C15.6833 8.36667 15.3583 8.2625 15.025 8.1875C14.6917 8.1125 14.35 8.05833 14 8.025V7H9V2H2V18H8.025C8.29167 18.4 8.59167 18.7708 8.925 19.1125C9.25833 19.4542 9.625 19.75 10.025 20H2ZM13.5 17C14.2 17 14.7917 16.7583 15.275 16.275C15.7583 15.7917 16 15.2 16 14.5C16 13.8 15.7583 13.2083 15.275 12.725C14.7917 12.2417 14.2 12 13.5 12C12.8 12 12.2083 12.2417 11.725 12.725C11.2417 13.2083 11 13.8 11 14.5C11 15.2 11.2417 15.7917 11.725 16.275C12.2083 16.7583 12.8 17 13.5 17ZM18.6 21L15.9 18.3C15.55 18.5333 15.1708 18.7083 14.7625 18.825C14.3542 18.9417 13.9333 19 13.5 19C12.25 19 11.1875 18.5625 10.3125 17.6875C9.4375 16.8125 9 15.75 9 14.5C9 13.25 9.4375 12.1875 10.3125 11.3125C11.1875 10.4375 12.25 10 13.5 10C14.75 10 15.8125 10.4375 16.6875 11.3125C17.5625 12.1875 18 13.25 18 14.5C18 14.9333 17.9417 15.3542 17.825 15.7625C17.7083 16.1708 17.5333 16.55 17.3 16.9L20 19.6L18.6 21Z" fill="black"/>
</svg>
