<svg width="24" height="63" viewBox="0 0 45 63" fill="none" xmlns="http://www.w3.org/2000/svg">
<path d="M5.625 63C4.07812 63 2.75391 62.4392 1.65234 61.3176C0.550781 60.196 0 58.8477 0 57.2727V25.7727C0 24.1977 0.550781 22.8494 1.65234 21.7278C2.75391 20.6062 4.07812 20.0455 5.625 20.0455H14.0625V25.7727H5.625V57.2727H39.375V25.7727H30.9375V20.0455H39.375C40.9219 20.0455 42.2461 20.6062 43.3477 21.7278C44.4492 22.8494 45 24.1977 45 25.7727V57.2727C45 58.8477 44.4492 60.196 43.3477 61.3176C42.2461 62.4392 40.9219 63 39.375 63H5.625ZM19.6875 42.9545V10.9534L15.1875 15.5352L11.25 11.4545L22.5 0L33.75 11.4545L29.8125 15.5352L25.3125 10.9534V42.9545H19.6875Z" fill="currentColor"/>
</svg>
