<svg width="31" height="31" viewBox="0 0 31 31" fill="none" xmlns="http://www.w3.org/2000/svg">
<path d="M15.5 31C13.3558 31 11.3408 30.5931 9.455 29.7794C7.56917 28.9656 5.92875 27.8613 4.53375 26.4663C3.13875 25.0713 2.03438 23.4308 1.22063 21.545C0.406875 19.6592 0 17.6442 0 15.5C0 13.3558 0.406875 11.3408 1.22063 9.455C2.03438 7.56917 3.13875 5.92875 4.53375 4.53375C5.92875 3.13875 7.56917 2.03438 9.455 1.22063C11.3408 0.406875 13.3558 0 15.5 0C17.6442 0 19.6592 0.406875 21.545 1.22063C23.4308 2.03438 25.0713 3.13875 26.4663 4.53375C27.8613 5.92875 28.9656 7.56917 29.7794 9.455C30.5931 11.3408 31 13.3558 31 15.5C31 17.6442 30.5931 19.6592 29.7794 21.545C28.9656 23.4308 27.8613 25.0713 26.4663 26.4663C25.0713 27.8613 23.4308 28.9656 21.545 29.7794C19.6592 30.5931 17.6442 31 15.5 31Z" fill="#3B3838"/>
<path d="M15.2929 20.7071C15.6834 21.0976 16.3166 21.0976 16.7071 20.7071L23.0711 14.3431C23.4616 13.9526 23.4616 13.3195 23.0711 12.9289C22.6805 12.5384 22.0474 12.5384 21.6569 12.9289L16 18.5858L10.3431 12.9289C9.95262 12.5384 9.31946 12.5384 8.92893 12.9289C8.53841 13.3195 8.53841 13.9526 8.92893 14.3431L15.2929 20.7071ZM15 19L15 20L17 20L17 19L15 19Z" fill="white"/>
</svg>
