<svg width="24" height="24" viewBox="0 0 24 36" fill="none" xmlns="http://www.w3.org/2000/svg">
<path d="M12.6875 30.6H16.3125V23.085L19.2125 25.965L21.75 23.4L14.5 16.2L7.25 23.4L9.83281 25.92L12.6875 23.085V30.6ZM3.625 36C2.62813 36 1.77474 35.6475 1.06484 34.9425C0.354948 34.2375 0 33.39 0 32.4V3.6C0 2.61 0.354948 1.7625 1.06484 1.0575C1.77474 0.3525 2.62813 0 3.625 0H18.125L29 10.8V32.4C29 33.39 28.6451 34.2375 27.9352 34.9425C27.2253 35.6475 26.3719 36 25.375 36H3.625ZM16.3125 12.6V3.6H3.625V32.4H25.375V12.6H16.3125Z" fill="currentColor"/>
</svg>
